<svg width="61" height="62" viewBox="0 0 61 62" fill="none" xmlns="http://www.w3.org/2000/svg">
<path d="M43.2994 32.7369L43.484 33.0996L43.8767 32.9925C44.5839 32.7997 45.3265 32.6949 46.0934 32.6949H52.0645C56.7154 32.6949 60.5 36.4795 60.5 41.1305V50.6758C60.5 53.3559 58.3188 55.5371 55.6387 55.5371H5.36133C2.68123 55.5371 0.5 53.3559 0.5 50.6758V41.1305C0.5 36.4795 4.28463 32.6949 8.93555 32.6949H14.9066C15.6735 32.6949 16.4161 32.7997 17.1233 32.9925L17.516 33.0996L17.7006 32.7369C19.0961 29.9935 21.9439 28.1113 25.2227 28.1113H35.7773C39.0561 28.1113 41.9039 29.9935 43.2994 32.7369ZM16.2871 52.963H16.7871V52.463V36.5471C16.7871 36.3631 16.7953 36.1782 16.8077 35.9894L16.8346 35.5812L16.4398 35.474C15.9511 35.3413 15.4373 35.2692 14.9066 35.2692H8.93555C5.70317 35.2692 3.07422 37.8982 3.07422 41.1306V50.6759C3.07422 51.9374 4.09977 52.963 5.36133 52.963H16.2871ZM41.1387 52.963H41.6387V52.463V36.547C41.6387 33.3146 39.0097 30.6857 35.7773 30.6857H25.2227C21.9903 30.6857 19.3613 33.3146 19.3613 36.547V52.463V52.963H19.8613H41.1387ZM44.2129 52.463V52.963H44.7129H55.6387C56.9002 52.963 57.9258 51.9374 57.9258 50.6759V41.1305C57.9258 37.8981 55.2968 35.2691 52.0645 35.2691H46.0934C45.5626 35.2691 45.0489 35.3414 44.5603 35.4738L44.1654 35.5809L44.1923 35.9893C44.2047 36.178 44.2129 36.3629 44.2129 36.547V52.463Z" fill="white" stroke="#7356BD"/>
<path d="M4.48096 23.2591V23.2591C4.48096 19.1569 7.81905 15.8188 11.9212 15.8188C16.0234 15.8188 19.3614 19.1569 19.3614 23.2591C19.3614 27.3612 16.0232 30.6993 11.9212 30.6993C7.81903 30.6993 4.48085 27.3612 4.48096 23.2591ZM7.05506 23.2591C7.05506 25.9427 9.23747 28.1251 11.9211 28.1251C14.6047 28.1251 16.7871 25.9427 16.7871 23.2591C16.7871 20.5755 14.6047 18.3931 11.9211 18.3931C9.23747 18.3931 7.05506 20.5755 7.05506 23.2591Z" fill="white" stroke="#7356BD"/>
<path d="M20.3918 16.0651C20.3918 10.4919 24.9267 5.95703 30.4999 5.95703C36.0731 5.95703 40.6079 10.492 40.6079 16.0651C40.6079 21.6383 36.0731 26.1731 30.4999 26.1731C24.9267 26.1731 20.3918 21.6383 20.3918 16.0651ZM22.9661 16.0651C22.9661 20.2197 26.3452 23.5989 30.4999 23.5989C34.6545 23.5989 38.0337 20.2197 38.0337 16.0651C38.0337 11.9104 34.6545 8.53125 30.4999 8.53125C26.3452 8.53125 22.9661 11.9106 22.9661 16.0651Z" fill="white" stroke="#7356BD"/>
<path d="M49.0787 30.6993C44.9766 30.6993 41.6385 27.3613 41.6384 23.2591V23.2591C41.6384 19.1569 44.9766 15.8188 49.0787 15.8188C53.1808 15.8188 56.5189 19.1569 56.5189 23.2591C56.5189 27.3612 53.1808 30.6993 49.0787 30.6993ZM44.2126 23.2591V23.2591C44.2126 25.9427 46.3952 28.1251 49.0787 28.1251C51.7623 28.1251 53.9447 25.9427 53.9447 23.2591C53.9447 20.5755 51.7623 18.3931 49.0787 18.3931C46.3952 18.3931 44.2128 20.5755 44.2126 23.2591Z" fill="white" stroke="#7356BD"/>
</svg>
