<svg width="47" height="48" viewBox="0 0 47 48" fill="none" xmlns="http://www.w3.org/2000/svg">
<g clip-path="url(#clip0)">
<path d="M26.9292 31.555L26.9293 31.5551C27.5349 31.9772 27.6834 32.8103 27.2611 33.4159C26.8385 34.0214 26.0054 34.1698 25.4 33.7474L25.3999 33.7474C22.9944 32.0697 20.1651 31.1827 17.2214 31.1827C10.9054 31.1827 5.17337 35.2538 3.28981 41.1099L3.28973 41.1102C3.05963 41.8269 3.18225 42.592 3.62584 43.2007C4.06937 43.8094 4.75998 44.1607 5.51295 44.1607H21.4838C22.2219 44.1607 22.8204 44.7591 22.8204 45.4972C22.8204 46.2357 22.2219 46.8341 21.4838 46.8341H5.51295C3.89245 46.8341 2.42009 46.0853 1.46552 44.7755C0.510948 43.4654 0.248975 41.8342 0.745185 40.2914C2.33915 35.3356 6.25967 31.4383 11.1062 29.6225L11.8668 29.3375L11.2689 28.7878C9.50446 27.1658 8.39834 24.8419 8.39834 22.264C8.39834 17.3775 12.375 13.4012 17.2615 13.4012C20.9815 13.4012 24.1754 15.7059 25.4874 18.9653L25.7263 19.5587L26.2437 19.1826C27.2194 18.4734 28.2684 17.8694 29.3847 17.3782L29.3848 17.3782C29.6292 17.2705 29.8768 17.1692 30.1266 17.0731L30.8794 16.7836L30.2843 16.2392C28.5104 14.6165 27.3982 12.2861 27.3982 9.70108C27.3982 4.81417 31.3745 0.837891 36.261 0.837891C41.1479 0.837891 45.1242 4.81418 45.1242 9.70108C45.1242 12.2966 44.0028 14.6355 42.2167 16.2589L41.6201 16.8011L42.3714 17.0932C43.619 17.5784 44.8124 18.2127 45.929 18.9917L45.9291 18.9918C46.5344 19.4138 46.6829 20.247 46.2606 20.8526C45.8381 21.4583 45.0053 21.6067 44.3994 21.1841C41.9938 19.5065 39.1649 18.6195 36.2208 18.6195C32.4498 18.6195 28.9283 20.0543 26.2439 22.67L26.1099 22.8006L26.0948 22.9871C25.9082 25.2914 24.8359 27.3509 23.2172 28.8221L22.6205 29.3645L23.3721 29.6566C24.6195 30.1413 25.8125 30.7759 26.9292 31.555ZM40.1161 39.9501H39.6171V40.4491V45.4972C39.6171 46.2357 39.0186 46.8341 38.2805 46.8341C37.542 46.8341 36.9436 46.2357 36.9436 45.4972V40.4491V39.9501H36.4446H31.3965C30.6584 39.9501 30.0599 39.3516 30.0599 38.6135C30.0599 37.875 30.6584 37.2766 31.3965 37.2766H36.4446H36.9436V36.7776V31.7295C36.9436 30.9914 37.542 30.3929 38.2805 30.3929C39.0186 30.3929 39.6171 30.9914 39.6171 31.7295V36.7776V37.2766H40.1161H45.1642C45.9027 37.2766 46.5011 37.875 46.5011 38.6135C46.5011 39.3516 45.9027 39.9501 45.1642 39.9501H40.1161ZM42.4507 9.70108C42.4507 6.28752 39.6745 3.51136 36.261 3.51136C32.8478 3.51136 30.0713 6.2875 30.0713 9.70108C30.0713 13.1143 32.8478 15.8908 36.261 15.8908C39.6746 15.8908 42.4507 13.1142 42.4507 9.70108ZM23.4512 22.264C23.4512 18.8508 20.6751 16.0743 17.2615 16.0743C13.848 16.0743 11.0718 18.8508 11.0718 22.264C11.0718 25.6775 13.848 28.4537 17.2615 28.4537C20.6751 28.4537 23.4512 25.6775 23.4512 22.264Z" fill="white" stroke="#DC4B8F" stroke-width="0.998047"/>
</g>
<defs>
<clipPath id="clip0">
<rect width="47" height="47" fill="white" transform="translate(0 0.24707)"/>
</clipPath>
</defs>
</svg>
