<svg width="51" height="52" viewBox="0 0 51 52" fill="none" xmlns="http://www.w3.org/2000/svg">
<g clip-path="url(#clip0)">
<path d="M38.9386 45.0952L38.9385 45.0951C38.5116 44.3902 37.594 44.1649 36.8892 44.5919L36.8892 44.5919C33.4642 46.6666 29.5258 47.7627 25.5 47.7627C13.3601 47.7627 3.48438 37.887 3.48438 25.7471C3.48438 13.6072 13.3601 3.73145 25.5 3.73145C37.6399 3.73145 47.5156 13.6072 47.5156 25.7471C47.5156 30.0896 46.224 34.3154 43.7829 37.9666C43.3249 38.6517 43.5089 39.5784 44.1941 40.0364C44.8792 40.4945 45.8058 40.3103 46.2639 39.6253C49.0359 35.479 50.5 30.6804 50.5 25.7471C50.5 19.0684 47.9002 12.792 43.1777 8.06934C38.4551 3.34689 32.1787 0.74707 25.5 0.74707C18.8213 0.74707 12.5449 3.34688 7.82227 8.06933C7.82227 8.06933 7.82226 8.06934 7.82226 8.06934M38.9386 45.0952L7.46871 43.7784C2.6525 38.9619 0 32.5584 0 25.7471C0 18.9358 2.6525 12.5322 7.46871 7.71578L7.82226 8.06934M38.9386 45.0952C39.3655 45.8 39.1403 46.7175 38.4353 47.1445L38.6944 47.5722L38.4353 47.1445C34.545 49.5011 30.0722 50.7471 25.5 50.7471C18.8213 50.7471 12.5449 48.1473 7.82227 43.4248C3.09982 38.7022 0.5 32.4257 0.5 25.7471C0.5 19.0684 3.09981 12.792 7.82226 8.06934M38.9386 45.0952L7.82226 8.06934" fill="white" stroke="#51B3EA"/>
<path d="M23.8614 25.2755L24.0078 25.129V24.9219V9.80957C24.0078 8.98543 24.6759 8.31738 25.5 8.31738C26.3242 8.31738 26.9922 8.98543 26.9922 9.80957V25.7471C26.9922 26.1428 26.835 26.5224 26.5552 26.8021L26.5551 26.8022L18.6665 34.6909C18.375 34.9823 17.994 35.1279 17.6114 35.1279C17.2287 35.1279 16.8477 34.9823 16.5562 34.6909C15.9734 34.1081 15.9735 33.1633 16.5562 32.5806L16.5562 32.5806L23.8614 25.2755Z" fill="white" stroke="#51B3EA"/>
</g>
<defs>
<clipPath id="clip0">
<rect width="51" height="51" fill="white" transform="translate(0 0.24707)"/>
</clipPath>
</defs>
</svg>
