<svg width="17" height="17" viewBox="0 0 17 17" fill="none" xmlns="http://www.w3.org/2000/svg">
<path d="M3.4375 16.375H2.3125C1.38212 16.375 0.625 15.6179 0.625 14.6875V6.76416C0.625 5.83379 1.38212 5.07666 2.3125 5.07666H3.4375C4.36787 5.07666 5.125 5.83379 5.125 6.76416V14.6875C5.125 15.6179 4.36787 16.375 3.4375 16.375ZM2.3125 6.20166C2.002 6.20166 1.75 6.45366 1.75 6.76416V14.6875C1.75 14.998 2.002 15.25 2.3125 15.25H3.4375C3.748 15.25 4 14.998 4 14.6875V6.76416C4 6.45366 3.748 6.20166 3.4375 6.20166H2.3125Z" fill="white"/>
<path d="M12.5264 16.375H11.3609C6.4536 16.375 4.30485 14.7347 4.21485 14.665C3.9696 14.4737 3.92685 14.1205 4.11922 13.8752C4.3116 13.63 4.66485 13.5872 4.90897 13.7796C4.92585 13.7931 6.8856 15.25 11.3609 15.25H12.5264C13.4984 15.25 14.3207 14.5536 14.4805 13.5951L15.223 9.1435C15.3186 8.5675 15.1577 7.9825 14.7797 7.537C14.4029 7.0915 13.8516 6.83612 13.2689 6.83612H9.45398C9.24585 6.83612 9.05573 6.72137 8.95785 6.53912C8.85998 6.35687 8.8701 6.13412 8.98598 5.962C8.98935 5.95638 9.5271 5.11037 9.5271 3.73C9.5271 2.27763 8.91285 1.75 8.49998 1.75C8.3166 1.75 8.10848 1.75 8.10848 3.0955C8.10848 5.629 4.96072 7.33562 4.82685 7.40762C4.5546 7.55275 4.21372 7.44925 4.06635 7.17587C3.9201 6.9025 4.0236 6.56162 4.29697 6.41537C4.32397 6.40075 6.98348 4.954 6.98348 3.09662C6.98348 2.2315 6.98347 0.625 8.49998 0.625C9.24473 0.625 10.6521 1.27413 10.6521 3.73112C10.6521 4.5535 10.4957 5.22738 10.327 5.71225H13.2677C14.1824 5.71225 15.0464 6.11275 15.637 6.81025C16.2276 7.50887 16.4807 8.42687 16.3311 9.328L15.5886 13.7796C15.34 15.2837 14.0519 16.375 12.5264 16.375Z" fill="white"/>
</svg>
