<svg width="7" height="12" viewBox="0 0 7 12" fill="none" xmlns="http://www.w3.org/2000/svg">
<path d="M6.4365 0.431461L6.43634 0.43132C6.15794 0.191487 5.74745 0.189576 5.46695 0.425585L0.468899 5.44229C0.468828 5.44236 0.468758 5.44243 0.468687 5.4425C0.177097 5.73693 0.177104 6.21259 0.468707 6.50701C0.468771 6.50707 0.468835 6.50714 0.468899 6.5072L5.4737 11.5307C5.47374 11.5307 5.47379 11.5308 5.47383 11.5308C5.76651 11.823 6.23873 11.8231 6.53159 11.5311C6.82297 11.2366 6.8228 10.761 6.5311 10.4667L2.23646 6.14597L2.06108 5.96952L2.23666 5.79328L6.52424 1.48966C6.78795 1.1733 6.7493 0.700462 6.4365 0.431461Z" fill="#212121" stroke="white" stroke-width="0.5"/>
</svg>
