<svg width="7" height="12" viewBox="0 0 7 12" fill="none" xmlns="http://www.w3.org/2000/svg">
<path d="M0.563499 0.431461L0.563662 0.43132C0.842057 0.191487 1.25255 0.189576 1.53305 0.425585L6.5311 5.44229C6.53117 5.44236 6.53124 5.44243 6.53131 5.4425C6.8229 5.73693 6.8229 6.21259 6.53129 6.50701C6.53123 6.50707 6.53117 6.50714 6.5311 6.5072L1.5263 11.5307C1.52626 11.5307 1.52621 11.5308 1.52617 11.5308C1.23349 11.823 0.761274 11.8231 0.468414 11.5311C0.177034 11.2366 0.177196 10.761 0.4689 10.4667L4.76354 6.14597L4.93892 5.96952L4.76334 5.79328L0.475764 1.48966C0.212046 1.1733 0.2507 0.700462 0.563499 0.431461Z" fill="#212121" stroke="white" stroke-width="0.5"/>
</svg>
