<svg width="23" height="23" viewBox="0 0 23 23" fill="none" xmlns="http://www.w3.org/2000/svg">
<path d="M18.6552 3.44629H4.34485C3.84866 3.44629 3.44641 3.84853 3.44641 4.34473V18.655C3.44641 19.1512 3.84866 19.5535 4.34485 19.5535H18.6552C19.1514 19.5535 19.5536 19.1512 19.5536 18.655V4.34473C19.5536 3.84853 19.1514 3.44629 18.6552 3.44629Z" stroke="#212121" stroke-width="0.5"/>
<path d="M3.44641 7.39941H19.5536" stroke="#212121" stroke-width="0.5"/>
<path d="M7.07968 3.44629V1.64941" stroke="#212121" stroke-width="0.5"/>
<path d="M15.6903 3.44629V1.64941" stroke="#212121" stroke-width="0.5"/>
<path d="M8.01048 10.0337H5.80032V12.2438H8.01048V10.0337Z" stroke="#212121" stroke-width="0.5"/>
<path d="M12.553 10.0337H10.3428V12.2438H12.553V10.0337Z" stroke="#212121" stroke-width="0.5"/>
<path d="M17.038 10.0337H14.8278V12.2438H17.038V10.0337Z" stroke="#212121" stroke-width="0.5"/>
<path d="M8.08952 14.26H5.87936V16.4702H8.08952V14.26Z" stroke="#212121" stroke-width="0.5"/>
<path d="M12.6356 14.26H10.4255V16.4702H12.6356V14.26Z" stroke="#212121" stroke-width="0.5"/>
<path d="M17.1206 14.26H14.9105V16.4702H17.1206V14.26Z" stroke="#212121" stroke-width="0.5"/>
</svg>
