<svg width="29" height="29" viewBox="0 0 29 29" fill="none" xmlns="http://www.w3.org/2000/svg">
<path d="M25.8281 3.625H23.5625V2.71875C23.5625 2.23805 23.3715 1.77703 23.0316 1.43712C22.6917 1.09721 22.2307 0.90625 21.75 0.90625C21.2693 0.90625 20.8083 1.09721 20.4684 1.43712C20.1285 1.77703 19.9375 2.23805 19.9375 2.71875V3.625H16.3125V2.71875C16.3125 2.23805 16.1215 1.77703 15.7816 1.43712C15.4417 1.09721 14.9807 0.90625 14.5 0.90625C14.0193 0.90625 13.5583 1.09721 13.2184 1.43712C12.8785 1.77703 12.6875 2.23805 12.6875 2.71875V3.625H9.0625V2.71875C9.0625 2.23805 8.87154 1.77703 8.53163 1.43712C8.19172 1.09721 7.7307 0.90625 7.25 0.90625C6.7693 0.90625 6.30828 1.09721 5.96837 1.43712C5.62846 1.77703 5.4375 2.23805 5.4375 2.71875V3.625H3.17188C2.57099 3.625 1.99472 3.8637 1.56984 4.28859C1.14495 4.71347 0.90625 5.28974 0.90625 5.89062V24.0156C0.90625 24.6165 1.14495 25.1928 1.56984 25.6177C1.99472 26.0426 2.57099 26.2812 3.17188 26.2812H15.8594C15.9796 26.2812 16.0948 26.2335 16.1798 26.1485C16.2648 26.0636 16.3125 25.9483 16.3125 25.8281C16.3125 25.7079 16.2648 25.5927 16.1798 25.5077C16.0948 25.4227 15.9796 25.375 15.8594 25.375H3.17188C2.81168 25.3739 2.46654 25.2304 2.21184 24.9757C1.95714 24.721 1.81358 24.3758 1.8125 24.0156V9.96875H27.1875V17.6719C27.1875 17.7921 27.2352 17.9073 27.3202 17.9923C27.4052 18.0773 27.5204 18.125 27.6406 18.125C27.7608 18.125 27.8761 18.0773 27.961 17.9923C28.046 17.9073 28.0938 17.7921 28.0938 17.6719V5.89062C28.0938 5.28974 27.8551 4.71347 27.4302 4.28859C27.0053 3.8637 26.429 3.625 25.8281 3.625ZM20.8438 2.71875C20.8438 2.4784 20.9392 2.24789 21.1092 2.07793C21.2791 1.90798 21.5096 1.8125 21.75 1.8125C21.9904 1.8125 22.2209 1.90798 22.3908 2.07793C22.5608 2.24789 22.6562 2.4784 22.6562 2.71875V5.4375C22.6562 5.67785 22.5608 5.90836 22.3908 6.07832C22.2209 6.24827 21.9904 6.34375 21.75 6.34375C21.5096 6.34375 21.2791 6.24827 21.1092 6.07832C20.9392 5.90836 20.8438 5.67785 20.8438 5.4375V2.71875ZM13.5938 2.71875C13.5938 2.4784 13.6892 2.24789 13.8592 2.07793C14.0291 1.90798 14.2596 1.8125 14.5 1.8125C14.7404 1.8125 14.9709 1.90798 15.1408 2.07793C15.3108 2.24789 15.4062 2.4784 15.4062 2.71875V5.4375C15.4062 5.67785 15.3108 5.90836 15.1408 6.07832C14.9709 6.24827 14.7404 6.34375 14.5 6.34375C14.2596 6.34375 14.0291 6.24827 13.8592 6.07832C13.6892 5.90836 13.5938 5.67785 13.5938 5.4375V2.71875ZM6.34375 2.71875C6.34375 2.4784 6.43923 2.24789 6.60918 2.07793C6.77914 1.90798 7.00965 1.8125 7.25 1.8125C7.49035 1.8125 7.72086 1.90798 7.89082 2.07793C8.06077 2.24789 8.15625 2.4784 8.15625 2.71875V5.4375C8.15625 5.67785 8.06077 5.90836 7.89082 6.07832C7.72086 6.24827 7.49035 6.34375 7.25 6.34375C7.00965 6.34375 6.77914 6.24827 6.60918 6.07832C6.43923 5.90836 6.34375 5.67785 6.34375 5.4375V2.71875ZM27.1875 9.0625H1.8125V5.89062C1.81358 5.53043 1.95714 5.18529 2.21184 4.93059C2.46654 4.67589 2.81168 4.53233 3.17188 4.53125H5.4375V5.4375C5.4375 5.9182 5.62846 6.37922 5.96837 6.71913C6.30828 7.05904 6.7693 7.25 7.25 7.25C7.7307 7.25 8.19172 7.05904 8.53163 6.71913C8.87154 6.37922 9.0625 5.9182 9.0625 5.4375V4.53125H12.6875V5.4375C12.6875 5.9182 12.8785 6.37922 13.2184 6.71913C13.5583 7.05904 14.0193 7.25 14.5 7.25C14.9807 7.25 15.4417 7.05904 15.7816 6.71913C16.1215 6.37922 16.3125 5.9182 16.3125 5.4375V4.53125H19.9375V5.4375C19.9375 5.9182 20.1285 6.37922 20.4684 6.71913C20.8083 7.05904 21.2693 7.25 21.75 7.25C22.2307 7.25 22.6917 7.05904 23.0316 6.71913C23.3715 6.37922 23.5625 5.9182 23.5625 5.4375V4.53125H25.8281C26.1883 4.53233 26.5335 4.67589 26.7882 4.93059C27.0429 5.18529 27.1864 5.53043 27.1875 5.89062V9.0625Z" fill="#620049"/>
<path d="M13.5938 13.1406C13.5938 12.9003 13.4983 12.6698 13.3283 12.4998C13.1584 12.3299 12.9279 12.2344 12.6875 12.2344H10.875C10.6346 12.2344 10.4041 12.3299 10.2342 12.4998C10.0642 12.6698 9.96875 12.9003 9.96875 13.1406V14.5C9.96875 14.7404 10.0642 14.9709 10.2342 15.1408C10.4041 15.3108 10.6346 15.4062 10.875 15.4062H12.6875C12.9279 15.4062 13.1584 15.3108 13.3283 15.1408C13.4983 14.9709 13.5938 14.7404 13.5938 14.5V13.1406ZM10.875 14.5V13.1406H12.6875V14.5H10.875Z" fill="#620049"/>
<path d="M8.15625 13.1406C8.15625 12.9003 8.06077 12.6698 7.89082 12.4998C7.72086 12.3299 7.49035 12.2344 7.25 12.2344H5.4375C5.19715 12.2344 4.96664 12.3299 4.79668 12.4998C4.62673 12.6698 4.53125 12.9003 4.53125 13.1406V14.5C4.53125 14.7404 4.62673 14.9709 4.79668 15.1408C4.96664 15.3108 5.19715 15.4062 5.4375 15.4062H7.25C7.49035 15.4062 7.72086 15.3108 7.89082 15.1408C8.06077 14.9709 8.15625 14.7404 8.15625 14.5V13.1406ZM5.4375 14.5V13.1406H7.25V14.5H5.4375Z" fill="#620049"/>
<path d="M23.5625 15.4062C23.8029 15.4062 24.0334 15.3108 24.2033 15.1408C24.3733 14.9709 24.4688 14.7404 24.4688 14.5V13.1406C24.4688 12.9003 24.3733 12.6698 24.2033 12.4998C24.0334 12.3299 23.8029 12.2344 23.5625 12.2344H21.75C21.5096 12.2344 21.2791 12.3299 21.1092 12.4998C20.9392 12.6698 20.8438 12.9003 20.8438 13.1406V14.5C20.8438 14.7404 20.9392 14.9709 21.1092 15.1408C21.2791 15.3108 21.5096 15.4062 21.75 15.4062H23.5625ZM21.75 13.1406H23.5625V14.5H21.75V13.1406Z" fill="#620049"/>
<path d="M13.5938 17.2188C13.5938 16.9784 13.4983 16.7479 13.3283 16.5779C13.1584 16.408 12.9279 16.3125 12.6875 16.3125H10.875C10.6346 16.3125 10.4041 16.408 10.2342 16.5779C10.0642 16.7479 9.96875 16.9784 9.96875 17.2188V18.5781C9.96875 18.8185 10.0642 19.049 10.2342 19.2189C10.4041 19.3889 10.6346 19.4844 10.875 19.4844H12.6875C12.9279 19.4844 13.1584 19.3889 13.3283 19.2189C13.4983 19.049 13.5938 18.8185 13.5938 18.5781V17.2188ZM10.875 18.5781V17.2188H12.6875V18.5781H10.875Z" fill="#620049"/>
<path d="M8.15625 17.2188C8.15625 16.9784 8.06077 16.7479 7.89082 16.5779C7.72086 16.408 7.49035 16.3125 7.25 16.3125H5.4375C5.19715 16.3125 4.96664 16.408 4.79668 16.5779C4.62673 16.7479 4.53125 16.9784 4.53125 17.2188V18.5781C4.53125 18.8185 4.62673 19.049 4.79668 19.2189C4.96664 19.3889 5.19715 19.4844 5.4375 19.4844H7.25C7.49035 19.4844 7.72086 19.3889 7.89082 19.2189C8.06077 19.049 8.15625 18.8185 8.15625 18.5781V17.2188ZM5.4375 18.5781V17.2188H7.25V18.5781H5.4375Z" fill="#620049"/>
<path d="M12.6875 20.3906H10.875C10.6346 20.3906 10.4041 20.4861 10.2342 20.6561C10.0642 20.826 9.96875 21.0565 9.96875 21.2969V22.6562C9.96875 22.8966 10.0642 23.1271 10.2342 23.2971C10.4041 23.467 10.6346 23.5625 10.875 23.5625H12.6875C12.9279 23.5625 13.1584 23.467 13.3283 23.2971C13.4983 23.1271 13.5938 22.8966 13.5938 22.6562V21.2969C13.5938 21.0565 13.4983 20.826 13.3283 20.6561C13.1584 20.4861 12.9279 20.3906 12.6875 20.3906ZM10.875 22.6562V21.2969H12.6875V22.6562H10.875Z" fill="#620049"/>
<path d="M16.3125 15.4062H18.125C18.3654 15.4062 18.5959 15.3108 18.7658 15.1408C18.9358 14.9709 19.0312 14.7404 19.0312 14.5V13.1406C19.0312 12.9003 18.9358 12.6698 18.7658 12.4998C18.5959 12.3299 18.3654 12.2344 18.125 12.2344H16.3125C16.0721 12.2344 15.8416 12.3299 15.6717 12.4998C15.5017 12.6698 15.4062 12.9003 15.4062 13.1406V14.5C15.4062 14.7404 15.5017 14.9709 15.6717 15.1408C15.8416 15.3108 16.0721 15.4062 16.3125 15.4062ZM16.3125 13.1406H18.125V14.5H16.3125V13.1406Z" fill="#620049"/>
<path d="M15.4062 18.5781C15.4062 18.8185 15.5017 19.049 15.6717 19.2189C15.8416 19.3889 16.0721 19.4844 16.3125 19.4844C16.4327 19.4844 16.5479 19.4366 16.6329 19.3517C16.7179 19.2667 16.7656 19.1514 16.7656 19.0312C16.7656 18.9111 16.7179 18.7958 16.6329 18.7108C16.5479 18.6259 16.4327 18.5781 16.3125 18.5781V17.2188H18.125C18.2452 17.2188 18.3604 17.171 18.4454 17.086C18.5304 17.0011 18.5781 16.8858 18.5781 16.7656C18.5781 16.6454 18.5304 16.5302 18.4454 16.4452C18.3604 16.3602 18.2452 16.3125 18.125 16.3125H16.3125C16.0721 16.3125 15.8416 16.408 15.6717 16.5779C15.5017 16.7479 15.4062 16.9784 15.4062 17.2188V18.5781Z" fill="#620049"/>
<path d="M7.25 20.3906H5.4375C5.19715 20.3906 4.96664 20.4861 4.79668 20.6561C4.62673 20.826 4.53125 21.0565 4.53125 21.2969V22.6562C4.53125 22.8966 4.62673 23.1271 4.79668 23.2971C4.96664 23.467 5.19715 23.5625 5.4375 23.5625H7.25C7.49035 23.5625 7.72086 23.467 7.89082 23.2971C8.06077 23.1271 8.15625 22.8966 8.15625 22.6562V21.2969C8.15625 21.0565 8.06077 20.826 7.89082 20.6561C7.72086 20.4861 7.49035 20.3906 7.25 20.3906ZM5.4375 22.6562V21.2969H7.25V22.6562H5.4375Z" fill="#620049"/>
<path d="M22.2031 16.3125C21.0381 16.3125 19.8992 16.658 18.9305 17.3052C17.9618 17.9525 17.2067 18.8725 16.7609 19.9489C16.3151 21.0253 16.1984 22.2097 16.4257 23.3523C16.653 24.495 17.214 25.5446 18.0378 26.3684C18.8616 27.1922 19.9113 27.7533 21.0539 27.9806C22.1966 28.2079 23.381 28.0912 24.4574 27.6454C25.5337 27.1995 26.4537 26.4445 27.101 25.4758C27.7483 24.5071 28.0938 23.3682 28.0938 22.2031C28.092 20.6414 27.4708 19.1441 26.3664 18.0398C25.2621 16.9355 23.7649 16.3143 22.2031 16.3125ZM22.2031 27.1875C21.2173 27.1875 20.2536 26.8952 19.434 26.3475C18.6143 25.7998 17.9754 25.0213 17.5982 24.1106C17.2209 23.1998 17.1222 22.1976 17.3145 21.2307C17.5068 20.2638 17.9816 19.3757 18.6786 18.6786C19.3757 17.9816 20.2639 17.5068 21.2307 17.3145C22.1976 17.1222 23.1998 17.2209 24.1106 17.5982C25.0213 17.9754 25.7998 18.6143 26.3475 19.434C26.8952 20.2536 27.1875 21.2173 27.1875 22.2031C27.1859 23.5246 26.6603 24.7915 25.7259 25.7259C24.7915 26.6603 23.5246 27.1859 22.2031 27.1875Z" fill="#620049"/>
<path d="M24.8213 20.3035L21.2969 23.8279L19.6951 22.2256C19.6096 22.1431 19.4952 22.0974 19.3763 22.0984C19.2575 22.0995 19.1439 22.1471 19.0599 22.2311C18.9759 22.3152 18.9282 22.4288 18.9272 22.5476C18.9261 22.6664 18.9718 22.7809 19.0544 22.8663L20.9765 24.789C21.0615 24.8739 21.1767 24.9216 21.2969 24.9216C21.417 24.9216 21.5323 24.8739 21.6172 24.789L25.462 20.9442C25.5445 20.8587 25.5902 20.7443 25.5892 20.6255C25.5881 20.5067 25.5405 20.393 25.4565 20.309C25.3725 20.225 25.2588 20.1773 25.14 20.1763C25.0212 20.1753 24.9067 20.2209 24.8213 20.3035Z" fill="#620049"/>
</svg>
