<svg width="16" height="16" viewBox="0 0 16 16" fill="none" xmlns="http://www.w3.org/2000/svg">
<path d="M11.7885 10.4786L9.16886 7.859L11.7885 5.23935C12.15 4.87784 12.1507 4.29167 11.7885 3.9295C11.4263 3.56732 10.8402 3.56798 10.4787 3.9295L7.85901 6.54914L5.23936 3.9295C4.87719 3.56732 4.29102 3.56798 3.92951 3.9295C3.56799 4.29101 3.56733 4.87718 3.92951 5.23935L6.54915 7.859L3.92951 10.4786C3.56799 10.8402 3.56733 11.4263 3.92951 11.7885C4.29168 12.1507 4.87785 12.15 5.23936 11.7885L7.85901 9.16885L10.4787 11.7885C10.8408 12.1507 11.427 12.15 11.7885 11.7885C12.15 11.427 12.1507 10.8408 11.7885 10.4786Z" fill="#D91313"/>
</svg>
