<svg width="18" height="18" viewBox="0 0 18 18" fill="none" xmlns="http://www.w3.org/2000/svg">
<path d="M14.3086 1.61719H3.69141C1.65591 1.61719 0 3.2731 0 5.30859V11.0099C0 12.6341 1.06636 14.0488 2.61159 14.5015L4.39439 16.2845C4.49341 16.3834 4.62744 16.439 4.76738 16.439C4.90718 16.439 5.04135 16.3834 5.14023 16.2845L6.77568 14.6489H14.3086C16.3441 14.6489 18 12.993 18 10.9575V5.30859C18 3.2731 16.3441 1.61719 14.3086 1.61719ZM16.9453 10.9575C16.9453 12.4114 15.7625 13.5942 14.3086 13.5942H6.55733C6.41753 13.5942 6.28336 13.6498 6.18448 13.7487L4.76738 15.1658L3.25813 13.6566C3.19043 13.5889 3.10556 13.5408 3.01259 13.5177C1.85985 13.2308 1.05469 12.1996 1.05469 11.0099V5.30859C1.05469 3.85469 2.2375 2.67188 3.69141 2.67188H14.3086C15.7625 2.67188 16.9453 3.85469 16.9453 5.30859V10.9575Z" fill="#212121"/>
<path d="M12.3484 6.67358H5.65164C5.36037 6.67358 5.1243 6.90979 5.1243 7.20093C5.1243 7.4922 5.36037 7.72827 5.65164 7.72827H12.3484C12.6396 7.72827 12.8757 7.4922 12.8757 7.20093C12.8757 6.90979 12.6396 6.67358 12.3484 6.67358Z" fill="#212121"/>
<path d="M12.3484 8.53784H5.65164C5.36037 8.53784 5.1243 8.77391 5.1243 9.06519C5.1243 9.35646 5.36037 9.59253 5.65164 9.59253H12.3484C12.6396 9.59253 12.8757 9.35646 12.8757 9.06519C12.8757 8.77391 12.6396 8.53784 12.3484 8.53784Z" fill="#212121"/>
</svg>
