<svg width="42" height="54" viewBox="0 0 42 54" fill="none" xmlns="http://www.w3.org/2000/svg">
<g clip-path="url(#clip0)">
<path d="M20.7526 24.2526C19.7481 24.2526 18.8956 24.9152 18.6087 25.8262H17.1152C16.928 24.256 16.0951 22.8812 14.8901 21.976L15.6381 20.6803C15.7954 20.7153 15.9587 20.7343 16.1264 20.7343C17.3655 20.7343 18.3737 19.7262 18.3737 18.487C18.3737 17.2478 17.3655 16.2396 16.1264 16.2396C14.8872 16.2396 13.879 17.2478 13.879 18.487C13.879 19.072 14.1039 19.6053 14.4715 20.0056L13.7239 21.3004C13.041 21.0072 12.2892 20.8445 11.5 20.8445C10.7109 20.8445 9.95913 21.0072 9.27614 21.3005L8.5286 20.0056C8.89624 19.6054 9.12112 19.072 9.12112 18.487C9.12112 17.2478 8.11298 16.2396 6.87377 16.2396C5.63455 16.2396 4.62641 17.2478 4.62641 18.487C4.62641 19.7262 5.63455 20.7343 6.87377 20.7343C7.04146 20.7343 7.20471 20.7153 7.36198 20.6803L8.11006 21.976C6.90494 22.8812 6.07209 24.256 5.88481 25.8262H4.39138C4.10442 24.9152 3.25189 24.2526 2.24735 24.2526C1.00814 24.2526 0 25.2608 0 26.5C0 27.7392 1.00814 28.7474 2.24735 28.7474C3.25189 28.7474 4.10442 28.0848 4.39138 27.1738H5.88481C6.07209 28.744 6.90494 30.1188 8.10997 31.024L7.36189 32.3197C7.20457 32.2847 7.04137 32.2657 6.87368 32.2657C5.63446 32.2657 4.62632 33.2738 4.62632 34.513C4.62632 35.7522 5.63446 36.7604 6.87368 36.7604C8.11285 36.7604 9.12103 35.7522 9.12103 34.513C9.12103 33.928 8.89615 33.3947 8.52851 32.9944L9.27605 31.6995C9.95904 31.9928 10.7108 32.1555 11.5 32.1555C12.2891 32.1555 13.0409 31.9928 13.7239 31.6996L14.4714 32.9944C14.1038 33.3947 13.8789 33.928 13.8789 34.513C13.8789 35.7522 14.8871 36.7604 16.1263 36.7604C17.3654 36.7604 18.3736 35.7522 18.3736 34.513C18.3736 33.2738 17.3654 32.2657 16.1263 32.2657C15.9586 32.2657 15.7953 32.2847 15.638 32.3197L14.89 31.024C16.095 30.1188 16.9279 28.744 17.1151 27.1738H18.6086C18.8955 28.0848 19.7481 28.7474 20.7526 28.7474C21.9919 28.7474 23 27.7392 23 26.5C23 25.2608 21.9919 24.2526 20.7526 24.2526ZM16.1263 17.5873C16.6224 17.5873 17.026 17.9909 17.026 18.487C17.026 18.9831 16.6224 19.3867 16.1263 19.3867C15.6302 19.3867 15.2266 18.9831 15.2266 18.487C15.2266 17.9909 15.6302 17.5873 16.1263 17.5873ZM5.97398 18.487C5.97398 17.9909 6.3776 17.5873 6.87368 17.5873C7.36975 17.5873 7.77337 17.9909 7.77337 18.487C7.77337 18.9831 7.36979 19.3867 6.87368 19.3867C6.37756 19.3867 5.97398 18.9831 5.97398 18.487ZM6.87368 35.4127C6.3776 35.4127 5.97398 35.0091 5.97398 34.513C5.97398 34.0169 6.3776 33.6133 6.87368 33.6133C7.36975 33.6133 7.77337 34.0169 7.77337 34.513C7.77337 35.0091 7.36979 35.4127 6.87368 35.4127ZM17.026 34.513C17.026 35.0091 16.6224 35.4127 16.1264 35.4127C15.6303 35.4127 15.2267 35.0091 15.2267 34.513C15.2267 34.0169 15.6303 33.6133 16.1264 33.6133C16.6224 33.6133 17.026 34.0169 17.026 34.513ZM2.24735 27.3997C1.75123 27.3997 1.34766 26.9961 1.34766 26.5C1.34766 26.0039 1.75123 25.6003 2.24735 25.6003C2.74347 25.6003 3.14705 26.0039 3.14705 26.5C3.14705 26.9961 2.74342 27.3997 2.24735 27.3997ZM9.683 30.4053V30.3033C9.683 29.3014 10.4981 28.4863 11.5 28.4863C12.5019 28.4863 13.317 29.3014 13.317 30.3033V30.4053C12.7646 30.6634 12.1489 30.8078 11.5 30.8078C10.8511 30.8078 10.2354 30.6633 9.683 30.4053ZM10.3755 26.0141C10.3755 25.3941 10.8799 24.8896 11.5 24.8896C12.1201 24.8896 12.6245 25.3941 12.6245 26.0141C12.6245 26.6342 12.1201 27.1386 11.5 27.1386C10.8799 27.1386 10.3755 26.6342 10.3755 26.0141ZM14.5669 29.5219C14.3763 28.7743 13.9185 28.1326 13.302 27.7039C13.7172 27.2615 13.9721 26.6672 13.9721 26.0141C13.9721 24.651 12.8631 23.542 11.5 23.542C10.1369 23.542 9.02786 24.651 9.02786 26.0141C9.02786 26.6672 9.28288 27.2615 9.69796 27.7039C9.08145 28.1326 8.6237 28.7743 8.43314 29.5219C7.66623 28.7438 7.19217 27.6763 7.19217 26.5C7.19217 24.1247 9.12467 22.1922 11.5 22.1922C13.8754 22.1922 15.8078 24.1247 15.8078 26.5C15.8078 27.6763 15.3338 28.7438 14.5669 29.5219ZM20.7526 27.3997C20.2566 27.3997 19.853 26.9961 19.853 26.5C19.853 26.0039 20.2566 25.6003 20.7526 25.6003C21.2488 25.6003 21.6523 26.0039 21.6523 26.5C21.6523 26.9961 21.2488 27.3997 20.7526 27.3997Z" fill="#1D0051"/>
<path d="M20.7526 24.2526C19.7481 24.2526 18.8956 24.9152 18.6087 25.8262H17.1152C16.928 24.256 16.0951 22.8812 14.8901 21.976L15.6381 20.6803C15.7954 20.7153 15.9587 20.7343 16.1264 20.7343C17.3655 20.7343 18.3737 19.7262 18.3737 18.487C18.3737 17.2478 17.3655 16.2396 16.1264 16.2396C14.8872 16.2396 13.879 17.2478 13.879 18.487C13.879 19.072 14.1039 19.6053 14.4715 20.0056L13.7239 21.3004C13.041 21.0072 12.2892 20.8445 11.5 20.8445C10.7109 20.8445 9.95913 21.0072 9.27614 21.3005L8.5286 20.0056C8.89624 19.6054 9.12112 19.072 9.12112 18.487C9.12112 17.2478 8.11298 16.2396 6.87377 16.2396C5.63455 16.2396 4.62641 17.2478 4.62641 18.487C4.62641 19.7262 5.63455 20.7343 6.87377 20.7343C7.04146 20.7343 7.20471 20.7153 7.36198 20.6803L8.11006 21.976C6.90494 22.8812 6.07209 24.256 5.88481 25.8262H4.39138C4.10442 24.9152 3.25189 24.2526 2.24735 24.2526C1.00814 24.2526 0 25.2608 0 26.5C0 27.7392 1.00814 28.7474 2.24735 28.7474C3.25189 28.7474 4.10442 28.0848 4.39138 27.1738H5.88481C6.07209 28.744 6.90494 30.1188 8.10997 31.024L7.36189 32.3197C7.20457 32.2847 7.04137 32.2657 6.87368 32.2657C5.63446 32.2657 4.62632 33.2738 4.62632 34.513C4.62632 35.7522 5.63446 36.7604 6.87368 36.7604C8.11285 36.7604 9.12103 35.7522 9.12103 34.513C9.12103 33.928 8.89615 33.3947 8.52851 32.9944L9.27605 31.6995C9.95904 31.9928 10.7108 32.1555 11.5 32.1555C12.2891 32.1555 13.0409 31.9928 13.7239 31.6996L14.4714 32.9944C14.1038 33.3947 13.8789 33.928 13.8789 34.513C13.8789 35.7522 14.8871 36.7604 16.1263 36.7604C17.3654 36.7604 18.3736 35.7522 18.3736 34.513C18.3736 33.2738 17.3654 32.2657 16.1263 32.2657C15.9586 32.2657 15.7953 32.2847 15.638 32.3197L14.89 31.024C16.095 30.1188 16.9279 28.744 17.1151 27.1738H18.6086C18.8955 28.0848 19.7481 28.7474 20.7526 28.7474C21.9919 28.7474 23 27.7392 23 26.5C23 25.2608 21.9919 24.2526 20.7526 24.2526ZM16.1263 17.5873C16.6224 17.5873 17.026 17.9909 17.026 18.487C17.026 18.9831 16.6224 19.3867 16.1263 19.3867C15.6302 19.3867 15.2266 18.9831 15.2266 18.487C15.2266 17.9909 15.6302 17.5873 16.1263 17.5873ZM5.97398 18.487C5.97398 17.9909 6.3776 17.5873 6.87368 17.5873C7.36975 17.5873 7.77337 17.9909 7.77337 18.487C7.77337 18.9831 7.36979 19.3867 6.87368 19.3867C6.37756 19.3867 5.97398 18.9831 5.97398 18.487ZM6.87368 35.4127C6.3776 35.4127 5.97398 35.0091 5.97398 34.513C5.97398 34.0169 6.3776 33.6133 6.87368 33.6133C7.36975 33.6133 7.77337 34.0169 7.77337 34.513C7.77337 35.0091 7.36979 35.4127 6.87368 35.4127ZM17.026 34.513C17.026 35.0091 16.6224 35.4127 16.1264 35.4127C15.6303 35.4127 15.2267 35.0091 15.2267 34.513C15.2267 34.0169 15.6303 33.6133 16.1264 33.6133C16.6224 33.6133 17.026 34.0169 17.026 34.513ZM2.24735 27.3997C1.75123 27.3997 1.34766 26.9961 1.34766 26.5C1.34766 26.0039 1.75123 25.6003 2.24735 25.6003C2.74347 25.6003 3.14705 26.0039 3.14705 26.5C3.14705 26.9961 2.74342 27.3997 2.24735 27.3997ZM9.683 30.4053V30.3033C9.683 29.3014 10.4981 28.4863 11.5 28.4863C12.5019 28.4863 13.317 29.3014 13.317 30.3033V30.4053C12.7646 30.6634 12.1489 30.8078 11.5 30.8078C10.8511 30.8078 10.2354 30.6633 9.683 30.4053ZM10.3755 26.0141C10.3755 25.3941 10.8799 24.8896 11.5 24.8896C12.1201 24.8896 12.6245 25.3941 12.6245 26.0141C12.6245 26.6342 12.1201 27.1386 11.5 27.1386C10.8799 27.1386 10.3755 26.6342 10.3755 26.0141ZM14.5669 29.5219C14.3763 28.7743 13.9185 28.1326 13.302 27.7039C13.7172 27.2615 13.9721 26.6672 13.9721 26.0141C13.9721 24.651 12.8631 23.542 11.5 23.542C10.1369 23.542 9.02786 24.651 9.02786 26.0141C9.02786 26.6672 9.28288 27.2615 9.69796 27.7039C9.08145 28.1326 8.6237 28.7743 8.43314 29.5219C7.66623 28.7438 7.19217 27.6763 7.19217 26.5C7.19217 24.1247 9.12467 22.1922 11.5 22.1922C13.8754 22.1922 15.8078 24.1247 15.8078 26.5C15.8078 27.6763 15.3338 28.7438 14.5669 29.5219ZM20.7526 27.3997C20.2566 27.3997 19.853 26.9961 19.853 26.5C19.853 26.0039 20.2566 25.6003 20.7526 25.6003C21.2488 25.6003 21.6523 26.0039 21.6523 26.5C21.6523 26.9961 21.2488 27.3997 20.7526 27.3997Z" stroke="#F2F2F2"/>
</g>
<line x1="41.5" y1="2.1451e-08" x2="41.5" y2="54" stroke="#B9B9B9"/>
<defs>
<clipPath id="clip0">
<rect width="23" height="23" fill="white" transform="translate(0 15)"/>
</clipPath>
</defs>
</svg>
