<svg width="42" height="54" viewBox="0 0 42 54" fill="none" xmlns="http://www.w3.org/2000/svg">
<path d="M20.9785 18.7402H2.02148C0.90823 18.7402 0 19.6475 0 20.7617V34.2383C0 35.3487 0.904188 36.2598 2.02148 36.2598H20.9785C22.089 36.2598 23 35.3556 23 34.2383V20.7617C23 19.6513 22.0958 18.7402 20.9785 18.7402ZM20.6994 20.0879L11.5429 29.2445L2.30714 20.0879H20.6994ZM1.34766 33.9592V21.0343L7.83792 27.469L1.34766 33.9592ZM2.30058 34.9121L8.79494 28.4178L11.0705 30.6738C11.334 30.935 11.7591 30.9341 12.0214 30.6718L14.2402 28.4529L20.6994 34.9121H2.30058ZM21.6523 33.9592L15.1932 27.5L21.6523 21.0408V33.9592Z" fill="#1D0051"/>
<line x1="41.5" y1="2.1451e-08" x2="41.5" y2="54" stroke="#B9B9B9"/>
</svg>
