<svg width="30" height="30" viewBox="0 0 30 30" fill="none" xmlns="http://www.w3.org/2000/svg">
<g clip-path="url(#clip0)">
<path d="M29.0616 14.0629H17.1869C16.6694 14.0629 16.2495 13.6429 16.2495 13.1255C16.2495 12.608 16.6694 12.188 17.1869 12.188H29.0616C29.5791 12.188 29.9991 12.608 29.9991 13.1255C29.9991 13.6429 29.5791 14.0629 29.0616 14.0629Z" fill="white"/>
<path d="M24.3743 18.7504C24.1342 18.7504 23.8943 18.6591 23.7117 18.4755C23.3455 18.1091 23.3455 17.5154 23.7117 17.1492L27.7367 13.1244L23.7117 9.09946C23.3455 8.73326 23.3455 8.13956 23.7117 7.77336C24.0781 7.40693 24.6718 7.40693 25.038 7.77336L29.7254 12.4607C30.0916 12.8269 30.0916 13.4206 29.7254 13.7868L25.038 18.4742C24.8542 18.6591 24.6143 18.7504 24.3743 18.7504Z" fill="white"/>
<path d="M9.99976 30.001C9.73221 30.001 9.47839 29.9635 9.22479 29.8848L1.70237 27.3786C0.678842 27.0211 0 26.0673 0 25.0013V2.50195C0 1.12321 1.12126 0.00195312 2.5 0.00195312C2.76732 0.00195312 3.02115 0.0394886 3.27497 0.118222L10.7972 2.6244C11.8209 2.9819 12.4995 3.93562 12.4995 5.00172V27.501C12.4995 28.8798 11.3785 30.001 9.99976 30.001ZM2.5 1.87689C2.15623 1.87689 1.87494 2.15818 1.87494 2.50195V25.0013C1.87494 25.2674 2.05369 25.5148 2.30866 25.6036L9.79584 28.0986C9.84962 28.116 9.91966 28.1261 9.99976 28.1261C10.3435 28.1261 10.6246 27.8448 10.6246 27.501V5.00172C10.6246 4.73554 10.4458 4.48813 10.1909 4.39932L2.7037 1.90436C2.64991 1.88697 2.57988 1.87689 2.5 1.87689Z" fill="white"/>
<path d="M19.0619 10.0007C18.5444 10.0007 18.1244 9.58076 18.1244 9.06327V3.43845C18.1244 2.57719 17.4233 1.87592 16.5621 1.87592H2.50003C1.98255 1.87592 1.56256 1.45593 1.56256 0.938447C1.56256 0.420962 1.98255 0.000976562 2.50003 0.000976562H16.5621C18.4583 0.000976562 19.9993 1.54222 19.9993 3.43845V9.06327C19.9993 9.58076 19.5793 10.0007 19.0619 10.0007Z" fill="white"/>
<path d="M16.562 26.2503H11.562C11.0446 26.2503 10.6246 25.8303 10.6246 25.3128C10.6246 24.7953 11.0446 24.3753 11.562 24.3753H16.562C17.4233 24.3753 18.1243 23.674 18.1243 22.8128V17.188C18.1243 16.6705 18.5443 16.2505 19.0618 16.2505C19.5793 16.2505 19.9993 16.6705 19.9993 17.188V22.8128C19.9993 24.709 18.4583 26.2503 16.562 26.2503Z" fill="white"/>
</g>
<defs>
<clipPath id="clip0">
<rect width="30" height="30" fill="white"/>
</clipPath>
</defs>
</svg>
