<svg width="47" height="54" viewBox="0 0 47 54" fill="none" xmlns="http://www.w3.org/2000/svg">
<path d="M16.5278 25.1111C19.3966 25.1111 21.7222 22.9969 21.7222 20.3889C21.7222 17.7809 19.3966 15.6667 16.5278 15.6667C13.659 15.6667 11.3333 17.7809 11.3333 20.3889C11.3333 22.9969 13.659 25.1111 16.5278 25.1111Z" stroke="#1D0051" stroke-width="2"/>
<path d="M26.4444 37.3889C26.4444 34.8841 25.3997 32.4818 23.5399 30.7107C21.6802 28.9395 19.1578 27.9444 16.5278 27.9444V27.9444C13.8977 27.9444 11.3754 28.9395 9.51564 30.7107C7.6559 32.4818 6.61111 34.8841 6.61111 37.3889H26.4444Z" stroke="#1D0051" stroke-width="2"/>
<line x1="46.5" y1="2.1451e-08" x2="46.5" y2="54" stroke="#B9B9B9"/>
</svg>
