<svg width="176" height="160" viewBox="0 0 176 160" fill="none" xmlns="http://www.w3.org/2000/svg">
<path d="M86.4318 76.0962C86.4318 76.0962 63.158 76.0962 46.0229 92.9184V140.084C46.0229 140.084 128.012 141.302 128.012 140.084C128.012 138.866 128.012 90.9085 128.012 90.9085C116.192 81.4871 101.558 76.2741 86.4318 76.0962Z" fill="#646EDD"/>
<path d="M86.4318 76.0962C80.8441 76.1365 75.3016 77.0997 70.0291 78.9466C70.0291 78.9466 72.177 87.1446 86.2243 87.1568C102.908 87.1568 102.908 78.1183 102.908 78.1183C102.908 78.1183 92.4608 75.1583 86.4318 76.0962Z" fill="#E3AF9A"/>
<path d="M51.8078 137.404H28.4363C25.4876 137.404 22.6596 138.573 20.5746 140.655C18.4895 142.736 17.3181 145.558 17.3181 148.501C17.3246 151.44 18.4988 154.257 20.5832 156.332C22.6676 158.408 25.4918 159.574 28.4363 159.574H55.9329L51.8078 137.404Z" fill="#E3AF9A"/>
<path d="M19.8933 141.412L34.3922 117.695L55.933 120.594L52.7354 148.501L19.8933 141.412Z" fill="#E3AF9A"/>
<path d="M46.0229 137.404H28.4363" stroke="#1C2337" stroke-width="0.66" stroke-linecap="round" stroke-linejoin="round"/>
<path d="M49.4891 89.7998C49.4891 89.7998 35.7713 99.9955 22.4319 122.433C22.4319 122.433 26.3739 135.418 51.2221 137.404L49.4891 89.7998Z" fill="#646EDD"/>
<path d="M124.985 137.404H148.369C151.318 137.404 154.146 138.573 156.231 140.655C158.316 142.736 159.487 145.558 159.487 148.501C159.487 151.444 158.316 154.267 156.231 156.348C154.146 158.429 151.318 159.598 148.369 159.598H120.824L124.985 137.404Z" fill="#E3AF9A"/>
<path d="M156.656 141.119L138.386 113.029L120.86 120.594L124.058 148.501L156.656 141.119Z" fill="#E3AF9A"/>
<path d="M126.316 137.404H148.369" stroke="#1C2337" stroke-width="0.66" stroke-linecap="round" stroke-linejoin="round"/>
<path d="M128.049 90.8599C128.049 90.8599 140.705 99.9836 154.032 122.434C154.032 122.434 151.152 135.419 126.316 137.404L128.049 90.8599Z" fill="#646EDD"/>
<path d="M124.29 105.197H49.7453C47.6895 105.197 46.0229 106.861 46.0229 108.913V155.883C46.0229 157.935 47.6895 159.599 49.7453 159.599H124.29C126.346 159.599 128.012 157.935 128.012 155.883V108.913C128.012 106.861 126.346 105.197 124.29 105.197Z" fill="#C3C9ED"/>
<path d="M87.0297 137.416C89.8067 137.416 92.0579 135.169 92.0579 132.398C92.0579 129.626 89.8067 127.379 87.0297 127.379C84.2527 127.379 82.0015 129.626 82.0015 132.398C82.0015 135.169 84.2527 137.416 87.0297 137.416Z" fill="white"/>
<path d="M66.5074 51.109C70.422 50.9985 73.5056 47.7416 73.3949 43.8344C73.2842 39.9273 70.0211 36.8496 66.1065 36.9601C62.1919 37.0706 59.1083 40.3275 59.219 44.2346C59.3297 48.1417 62.5929 51.2195 66.5074 51.109Z" fill="#E3AF9A"/>
<path d="M62.2427 43.0483C62.2427 43.0483 65.0619 41.684 67.7469 46.5687" stroke="black" stroke-width="0.47" stroke-linecap="round" stroke-linejoin="round"/>
<path d="M72.8605 12.9487C72.8605 12.9487 64.9155 13.9232 63.8659 22.0237C62.9827 28.7004 64.2659 35.4839 67.5272 41.3796L67.8079 23.2418L72.8605 12.9487Z" fill="#1D0300"/>
<path d="M106.349 51.1126C110.265 51.1126 113.44 47.944 113.44 44.0353C113.44 40.1266 110.265 36.958 106.349 36.958C102.433 36.958 99.2585 40.1266 99.2585 44.0353C99.2585 47.944 102.433 51.1126 106.349 51.1126Z" fill="#E3AF9A"/>
<path d="M110.34 42.9391C110.34 42.9391 107.484 41.6479 104.934 46.5934" stroke="black" stroke-width="0.47" stroke-linecap="round" stroke-linejoin="round"/>
<path d="M95.4141 59.1887C93.0949 60.799 90.5083 61.9867 87.7741 62.6969C85.2734 63.0118 82.7378 62.5073 80.5491 61.2595L76.302 58.8232L75.6674 79.8967L75.0693 80.2865C78.0652 82.736 81.8134 84.0836 85.686 84.1036C89.5587 84.1235 93.3206 82.8146 96.3417 80.3961L96.183 79.6653L95.4141 59.1887Z" fill="#E3AF9A"/>
<path d="M75.0327 58.7378C75.0327 58.7378 77.9862 70.383 86.8832 70.2368C94.3889 70.115 96.4027 58.7378 96.4027 58.7378H75.0327Z" fill="#1D0300"/>
<path d="M105.459 31.6711C105.486 38.3508 104.754 45.012 103.274 51.5265C102.176 56.3258 99.0512 59.6879 94.621 62.4164L93.8155 62.9159C91.4758 64.3282 88.8022 65.095 86.0682 65.1378C83.3342 65.1806 80.6379 64.4979 78.2549 63.1595C73.3731 60.4065 70.0291 56.7766 68.9673 51.6361C67.7288 45.1325 66.9944 38.5432 66.7705 31.9269C66.7705 31.9269 64.0368 10.2931 84.9185 10.5855C105.8 10.8778 105.459 31.6711 105.459 31.6711Z" fill="#E3AF9A"/>
<path d="M94.0596 31.6714C94.0596 31.6714 89.7636 30.8431 89.5684 33.1453C89.5684 33.1453 89.4707 34.7167 93.2297 35.338C96.9886 35.9592 98.4776 35.8374 98.9291 34.4C99.3807 32.9626 96.0855 31.8907 94.0596 31.6714Z" fill="#1D0300"/>
<path d="M75.5333 31.8053C75.5333 31.8053 71.1641 32.0002 71.5059 34.2416C71.5059 34.2416 71.7744 35.7886 75.5699 35.5206C79.3655 35.2526 80.7934 34.7775 80.8911 33.2793C80.9887 31.781 77.547 31.513 75.5333 31.8053Z" fill="#1D0300"/>
<path d="M77.1076 43.3532C78.0377 43.3532 78.7918 42.6006 78.7918 41.6722C78.7918 40.7438 78.0377 39.9912 77.1076 39.9912C76.1774 39.9912 75.4233 40.7438 75.4233 41.6722C75.4233 42.6006 76.1774 43.3532 77.1076 43.3532Z" fill="#1D0300"/>
<path d="M93.6813 43.3532C94.6114 43.3532 95.3655 42.6006 95.3655 41.6722C95.3655 40.7438 94.6114 39.9912 93.6813 39.9912C92.7511 39.9912 91.9971 40.7438 91.9971 41.6722C91.9971 42.6006 92.7511 43.3532 93.6813 43.3532Z" fill="#1D0300"/>
<path d="M85.7118 48.0065H83.8567V43.7188" stroke="black" stroke-width="0.47" stroke-linecap="round" stroke-linejoin="round"/>
<path d="M79.8047 51.5874C79.8047 51.5874 81.4645 54.0236 89.3119 52.8786" stroke="black" stroke-width="0.47" stroke-linecap="round" stroke-linejoin="round"/>
<path d="M67.5028 42.1838C67.5028 42.1838 72.0794 17.4681 69.0405 14.167C69.0527 14.1427 58.5813 23.6196 67.5028 42.1838Z" fill="#1D0300"/>
<path d="M104.677 41.1973C104.677 41.1973 97.257 19.8558 102.151 16.3477C102.151 16.3477 112.281 21.4029 104.677 41.1973Z" fill="#1D0300"/>
<path d="M96.8665 12.8272C96.8665 12.8272 107.85 9.80627 108.961 21.2566C109.84 29.3936 104.58 41.4165 104.58 41.4165L104.299 23.2787L96.8665 12.8272Z" fill="#1D0300"/>
<path d="M94.2548 13.5337C94.2548 13.5337 93.9741 28.0171 104.958 28.1511C104.958 28.1511 107.021 15.2512 94.2548 13.5337Z" fill="#1D0300"/>
<path d="M98.7949 19.2831C93.3162 19.0221 87.8525 20.0485 82.8437 22.2797C74.618 25.9341 61.1931 27.9074 59.2282 18.2355C57.1778 8.17388 68.2228 -0.584398 88.6286 6.0909C104.751 11.341 99.9665 17.2489 99.9665 17.2489L98.7949 19.2831Z" fill="#1D0300"/>
<path d="M96.8665 13.8869C96.8665 13.8869 105.153 8.38102 108.119 18.6741L101.821 20.8424L96.8665 13.8869Z" fill="#1D0300"/>
<path d="M100.43 14.7882C100.43 14.7882 100.076 5.68882 87.152 0.268192C86.6157 0.0460139 86.0325 -0.0391537 85.4549 0.0204018C84.8774 0.0799574 84.3239 0.282355 83.8446 0.609266C83.4636 0.869187 83.138 1.20194 82.8867 1.58826C82.6354 1.97459 82.4633 2.40682 82.3804 2.85996C82.2976 3.31309 82.3056 3.77812 82.404 4.22814C82.5024 4.67817 82.6892 5.10425 82.9536 5.48174L85.3945 8.8803L100.43 14.7882Z" fill="#1D0300"/>
</svg>
