<svg width="45" height="54" viewBox="0 0 45 54" fill="none" xmlns="http://www.w3.org/2000/svg">
<path d="M22.7287 23.5547H6.27125C5.89587 23.5547 5.59156 23.859 5.59156 24.2344V36.8992C5.59156 37.2746 5.89587 37.5789 6.27125 37.5789H22.7287C23.1041 37.5789 23.4084 37.2746 23.4084 36.8992V24.2344C23.4084 23.859 23.1041 23.5547 22.7287 23.5547Z" stroke="#1D0051" stroke-width="2"/>
<path d="M14.5 15.4211C15.8568 15.4211 17.158 15.9601 18.1174 16.9195C19.0768 17.8789 19.6158 19.1801 19.6158 20.5369V23.5547H9.38422V20.5369C9.38422 19.1801 9.9232 17.8789 10.8826 16.9195C11.842 15.9601 13.1432 15.4211 14.5 15.4211V15.4211Z" stroke="#1D0051" stroke-width="2"/>
<path d="M14.5 33.1111C15.441 33.1111 16.2037 32.3483 16.2037 31.4073C16.2037 30.4664 15.441 29.7036 14.5 29.7036C13.559 29.7036 12.7962 30.4664 12.7962 31.4073C12.7962 32.3483 13.559 33.1111 14.5 33.1111Z" stroke="#1D0051" stroke-width="2"/>
<path d="M14.5 33.1156V35.4855" stroke="#1D0051" stroke-width="2"/>
<line x1="44.5" y1="2.1451e-08" x2="44.5" y2="54" stroke="#B9B9B9"/>
</svg>
