<svg width="32" height="32" viewBox="0 0 32 32" fill="none" xmlns="http://www.w3.org/2000/svg">
<path d="M10.2802 21.7203C10.6045 22.084 13.0421 23.3544 13.0421 23.3544C13.7833 23.6725 14.5682 23.8751 15.3699 23.9553C21.328 24.4824 26.1561 20.2654 27.9765 15.5793C27.992 15.5454 28 15.5086 28 15.4713C28 15.4339 27.992 15.3971 27.9765 15.3632C27.4795 14.4144 23.5616 7.17696 16.5835 7.003C9.6054 6.82905 5.59849 14.2615 5.03355 15.3368C5.01155 15.3763 5 15.4207 5 15.466C5 15.5112 5.01155 15.5557 5.03355 15.5951C6.17427 17.4503 7.54151 19.1539 9.10323 20.6661" stroke="#1D0051" stroke-width="1.5"/>
<path d="M16.5 19C18.433 19 20 17.433 20 15.5C20 13.567 18.433 12 16.5 12C14.567 12 13 13.567 13 15.5C13 17.433 14.567 19 16.5 19Z" stroke="#1D0051" stroke-width="1.5"/>
<path d="M28 4L5 27" stroke="#1D0051" stroke-width="1.5"/>
</svg>
