<svg width="42" height="54" viewBox="0 0 42 54" fill="none" xmlns="http://www.w3.org/2000/svg">
<line x1="41.5" y1="2.1451e-08" x2="41.5" y2="54" stroke="#B9B9B9"/>
<g clip-path="url(#clip0)">
<path d="M23.383 32.7016L20.3995 29.718C19.5769 28.8955 18.2385 28.8955 17.4159 29.718L16.0598 31.0742C15.4366 31.6973 14.4226 31.6971 13.7997 31.0744L7.92157 25.1913C7.29696 24.5666 7.29687 23.5557 7.92157 22.931C8.14001 22.7125 8.76725 22.0853 9.27772 21.5748C10.0967 20.7559 10.1081 19.4216 9.27692 18.5905L6.29416 15.6172C5.4716 14.7946 4.13317 14.7946 3.31281 15.615C2.69894 16.2235 2.50094 16.4198 2.22569 16.6927C-0.74057 19.6589 -0.74057 24.4853 2.22555 27.4514L11.5393 36.77C14.5124 39.7432 19.3246 39.7435 22.2981 36.77L23.383 35.6851C24.2056 34.8625 24.2056 33.5241 23.383 32.7016ZM4.30516 16.6117C4.57933 16.3375 5.02539 16.3374 5.30046 16.6124L8.28321 19.5858C8.55804 19.8606 8.55804 20.3054 8.28321 20.5803L7.78592 21.0775L3.81044 17.1021L4.30516 16.6117ZM12.5339 35.7757L3.22019 26.457C0.925277 24.1621 0.799136 20.5585 2.83225 18.1129L6.7962 22.0769C5.75463 23.2576 5.79804 25.0568 6.92684 26.1856L12.8048 32.0685C12.8048 32.0685 12.8049 32.0686 12.805 32.0687C13.9326 33.1963 15.7317 33.2425 16.9139 32.1995L20.8779 36.1636C18.4401 38.1932 14.8446 38.0864 12.5339 35.7757ZM22.3886 34.6906L21.8913 35.1879L17.9132 31.2098L18.4104 30.7125C18.6847 30.4384 19.1308 30.4383 19.405 30.7125L22.3885 33.6961C22.6628 33.9703 22.6628 34.4165 22.3886 34.6906Z" fill="#1D0051"/>
</g>
<defs>
<clipPath id="clip0">
<rect width="24" height="24" fill="white" transform="translate(0 15)"/>
</clipPath>
</defs>
</svg>
