<svg width="27" height="27" viewBox="0 0 27 27" fill="none" xmlns="http://www.w3.org/2000/svg">
<path d="M20.892 3.64612L19.3226 4.78335C19.2418 4.84308 19.1466 4.88034 19.0467 4.89133C18.9469 4.90232 18.8458 4.88664 18.754 4.84589L16.7127 4.00435C16.6228 3.96787 16.5437 3.90902 16.483 3.83338C16.4223 3.75774 16.382 3.66783 16.3658 3.5722L15.9905 1.42852C15.9687 1.29397 15.8993 1.17173 15.795 1.08406C15.6906 0.996394 15.5582 0.949133 15.4219 0.950887H12.6584C12.5278 0.947394 12.3999 0.989023 12.2963 1.06877C12.1928 1.14851 12.1199 1.2615 12.0898 1.38872L11.561 3.50396C11.5405 3.58372 11.503 3.65807 11.451 3.72188C11.3989 3.7857 11.3337 3.83745 11.2597 3.87356L9.38323 4.81746C9.29285 4.86064 9.19266 4.87917 9.09281 4.87118C8.99296 4.86319 8.89699 4.82897 8.81462 4.77197L7.10878 3.56083C6.99736 3.48019 6.86049 3.44267 6.72353 3.45522C6.58657 3.46776 6.4588 3.52953 6.36389 3.62906L4.28845 5.75568C4.19531 5.84821 4.13706 5.97011 4.12359 6.10071C4.11011 6.2313 4.14225 6.36253 4.21453 6.47213L5.27784 8.10974C5.326 8.18387 5.35622 8.2682 5.36609 8.35605C5.37596 8.4439 5.36521 8.53284 5.3347 8.61581L4.5955 10.6571C4.56475 10.7436 4.51352 10.8214 4.44619 10.8838C4.37886 10.9461 4.29742 10.9913 4.20884 11.0154L2.01968 11.6181C1.89563 11.6514 1.78652 11.7257 1.71011 11.829C1.6337 11.9323 1.59451 12.0583 1.59891 12.1867V14.8819C1.59622 15.015 1.64027 15.1447 1.72339 15.2486C1.80651 15.3525 1.92343 15.424 2.0538 15.4505L4.27139 15.9054C4.36056 15.9228 4.44427 15.9613 4.5155 16.0177C4.58673 16.0741 4.64341 16.1467 4.68079 16.2295L5.48823 18.0207C5.52578 18.1038 5.54279 18.1947 5.53785 18.2857C5.5329 18.3768 5.50613 18.4653 5.4598 18.5438L4.24865 20.6079C4.18213 20.7189 4.15546 20.8492 4.17303 20.9774C4.19061 21.1056 4.25138 21.224 4.34531 21.313L6.28997 23.1666C6.38638 23.2606 6.51302 23.3174 6.64734 23.3267C6.78167 23.3361 6.91496 23.2975 7.02348 23.2178L8.66109 22.0294C8.74242 21.9706 8.83787 21.9344 8.93774 21.9244C9.03761 21.9144 9.13834 21.931 9.22971 21.9726L11.3563 22.9221C11.4433 22.9596 11.5196 23.0183 11.5782 23.0928C11.6368 23.1673 11.6758 23.2552 11.6918 23.3486L12.0671 25.5036C12.0889 25.6382 12.1583 25.7604 12.2627 25.8481C12.367 25.9358 12.4994 25.983 12.6357 25.9813H15.4162C15.5542 25.9826 15.688 25.9338 15.7926 25.8438C15.8972 25.7538 15.9655 25.6289 15.9848 25.4923L16.3146 23.2178C16.3283 23.123 16.3656 23.0331 16.4233 22.9565C16.481 22.88 16.557 22.8193 16.6444 22.78L18.6801 21.8588C18.7709 21.8165 18.8714 21.7989 18.9713 21.8079C19.0711 21.8169 19.1668 21.8521 19.2487 21.91L21.0341 23.1155C21.147 23.1924 21.2839 23.2262 21.4196 23.2105C21.5554 23.1949 21.6809 23.1308 21.7733 23.0302L23.7351 20.9263C23.8261 20.8306 23.8811 20.7062 23.8904 20.5744C23.8998 20.4427 23.8629 20.3117 23.7862 20.2042L22.6035 18.4983C22.5456 18.4165 22.5104 18.3208 22.5014 18.2209C22.4924 18.121 22.51 18.0206 22.5523 17.9297L23.3939 15.9794C23.4293 15.8951 23.4844 15.8206 23.5547 15.7622C23.625 15.7038 23.7083 15.6632 23.7976 15.6439L25.8787 15.206C26.0091 15.1795 26.126 15.108 26.2091 15.0041C26.2922 14.9002 26.3363 14.7705 26.3336 14.6374V12.0332C26.3363 11.9002 26.2922 11.7704 26.2091 11.6665C26.126 11.5626 26.0091 11.4911 25.8787 11.4646L23.7635 11.021C23.6703 11.0017 23.5835 10.9593 23.511 10.8977C23.4385 10.8361 23.3826 10.7573 23.3484 10.6685L22.5239 8.59306C22.4894 8.50573 22.477 8.41121 22.4879 8.31795C22.4989 8.22468 22.5327 8.13556 22.5865 8.05856L23.809 6.27312C23.8858 6.162 23.9205 6.02716 23.907 5.89276C23.8934 5.75835 23.8325 5.63316 23.7351 5.5396L21.6255 3.69161C21.5284 3.59846 21.4014 3.54277 21.2671 3.53444C21.1328 3.52611 20.9999 3.56568 20.892 3.64612Z" stroke="#3B0051"/>
<path d="M14.5 18C16.9853 18 19 15.9853 19 13.5C19 11.0147 16.9853 9 14.5 9C12.0147 9 10 11.0147 10 13.5C10 15.9853 12.0147 18 14.5 18Z" stroke="#3B0051"/>
</svg>
