<svg width="311" height="303" viewBox="0 0 311 303" fill="none" xmlns="http://www.w3.org/2000/svg">
<g clip-path="url(#clip0)">
<path d="M154.06 178.943L163.685 224.245L118 224L115.587 219.054L90.5941 209.117C89.3241 208.613 88.3073 207.624 87.7691 206.369C86.6531 203.764 87.8592 200.748 90.4636 199.632L147.006 175.277C147.323 175.141 147.653 175.037 147.991 174.966C150.765 174.389 153.482 176.169 154.06 178.943Z" fill="#B0BEC5"/>
<path d="M253.493 202.03C271.709 194.184 269.212 147.741 247.915 98.2971C226.618 48.8532 194.587 15.1316 176.37 22.9778C158.154 30.824 160.651 77.2667 181.948 126.711C203.245 176.154 235.276 209.876 253.493 202.03Z" fill="#B0BEC5"/>
<path d="M198.042 86.2621C195.44 87.383 194.239 90.4015 195.36 93.0038L215.655 140.123C216.776 142.725 219.795 143.926 222.397 142.805C236.024 135.238 241.085 118.155 233.779 104.386C228.794 89.6179 212.903 81.5586 198.042 86.2621Z" fill="#F44336"/>
<path d="M147.007 175.277C129.62 182.766 116.888 170.196 111.27 157.153C105.653 144.111 105.265 126.224 122.652 118.735C125.255 117.614 126.456 114.595 125.335 111.993C124.214 109.391 121.196 108.19 118.593 109.311L66.7623 131.636C45.944 140.603 36.3365 164.749 45.3035 185.567C54.2705 206.385 78.4164 215.993 99.2347 207.026L151.065 184.701C153.668 183.58 154.869 180.562 153.748 177.959C152.627 175.358 149.609 174.156 147.007 175.277Z" fill="#F44336"/>
<path d="M186.66 124.681C173.079 93.1495 166.802 61.5098 170.271 42.0954C170.773 39.3066 168.92 36.6391 166.131 36.1367C164.046 35.7613 161.944 36.7058 160.841 38.5152L117.048 109.977C98.8116 118.815 92.5428 139.614 101.846 161.213C111.15 182.812 130.57 192.546 149.52 185.367L231.55 202.678C234.321 203.268 237.047 201.5 237.636 198.728C238.078 196.656 237.2 194.526 235.427 193.366C218.92 182.511 200.242 156.214 186.66 124.681Z" fill="#F5F5F5"/>
<path d="M255.522 206.742C231.02 217.296 196.915 174.427 177.237 128.741C157.558 83.054 149.839 28.8199 174.341 18.2663C198.843 7.71263 232.948 50.5812 252.626 96.2677C272.305 141.954 280.024 196.188 255.522 206.742ZM178.4 27.6899C165.028 33.4497 165.147 74.7349 186.66 124.681C208.173 174.627 238.091 203.078 251.463 197.318C264.835 191.558 264.716 150.273 243.203 100.327C221.69 50.3805 191.772 21.9301 178.4 27.6899Z" fill="#F5F5F5"/>
<path d="M255.522 206.742C231.02 217.296 196.915 174.427 177.237 128.741C157.558 83.054 149.839 28.8199 174.341 18.2663C198.843 7.71263 232.948 50.5812 252.626 96.2677C272.305 141.954 280.024 196.188 255.522 206.742ZM178.4 27.6899C165.028 33.4497 165.147 74.7349 186.66 124.681C208.173 174.627 238.091 203.078 251.463 197.318C264.835 191.558 264.716 150.273 243.203 100.327C221.69 50.3805 191.772 21.9301 178.4 27.6899Z" fill="black"/>
<path d="M222.397 142.805C219.794 143.926 216.776 142.725 215.655 140.122C214.534 137.52 215.735 134.502 218.337 133.381C226.131 130.024 228.82 118.811 224.355 108.444C219.89 98.078 209.895 92.3283 202.101 95.6852C199.499 96.8061 196.48 95.6051 195.359 93.0028C194.239 90.4005 195.44 87.382 198.042 86.2612C212.902 81.5576 228.793 89.6164 233.778 104.385C241.085 118.155 236.024 135.238 222.397 142.805Z" fill="black"/>
<path d="M234.631 202.334C233.657 202.756 232.577 202.867 231.538 202.649L149.567 185.347L99.2348 207.026C78.4165 215.993 54.2706 206.386 45.3036 185.567C36.3367 164.749 45.9439 140.603 66.7622 131.636L117.094 109.956L160.832 38.5194C162.3 36.0957 165.454 35.3204 167.878 36.7876C169.703 37.8926 170.653 40.011 170.266 42.1089C166.794 61.4911 173.075 93.14 186.66 124.681C200.246 156.222 218.928 182.53 235.397 193.323C237.768 194.874 238.433 198.053 236.882 200.424C236.33 201.267 235.543 201.93 234.617 202.328L234.631 202.334ZM70.8212 141.059C55.2075 147.785 48.0018 165.894 54.7271 181.508C61.4523 197.122 79.5619 204.327 95.1756 197.602L147.006 175.277C147.98 174.855 149.06 174.745 150.099 174.962L214.442 188.584C198.837 170.815 186.267 150.596 177.236 128.74C167.568 107.173 161.518 84.1612 159.328 60.6284L125.022 116.741C124.456 117.634 123.628 118.33 122.652 118.734L70.821 141.059L70.8212 141.059Z" fill="black"/>
<path d="M115.588 219.054L118 224L130.5 224L124.171 213.044C123.631 211.796 122.617 210.815 121.353 210.314L94.387 199.584C91.8017 198.607 88.907 199.854 87.8404 202.404C86.7476 205.018 87.9808 208.024 90.5945 209.117L115.588 219.054Z" fill="black"/>
<path d="M145.225 186.703L153.749 224.266L163.638 224.266L154.06 178.944C153.99 178.606 153.885 178.276 153.749 177.959C152.628 175.357 149.609 174.157 147.007 175.278C129.62 182.767 116.888 170.197 111.271 157.154C105.653 144.112 105.266 126.224 122.653 118.735C125.255 117.615 126.456 114.596 125.335 111.994C124.214 109.392 121.196 108.191 118.594 109.311C98.8694 117.807 92.1329 138.662 101.846 161.213C110.598 181.531 127.521 191.201 145.225 186.703Z" fill="black"/>
</g>
<defs>
<clipPath id="clip0">
<rect width="236" height="236" fill="white" transform="translate(0 93.3594) rotate(-23.3028)"/>
</clipPath>
</defs>
</svg>
