<svg width="26" height="26" viewBox="0 0 26 26" fill="none" xmlns="http://www.w3.org/2000/svg">
<path d="M13 0C5.82032 0 0 5.82032 0 13C0 20.1797 5.82032 26 13 26C20.1797 26 26 20.1797 26 13C25.9919 5.82368 20.1763 0.008125 13 0ZM13 25.1333C6.29893 25.1333 0.866667 19.7011 0.866667 13C0.866667 6.29893 6.29893 0.866667 13 0.866667C19.7011 0.866667 25.1333 6.29893 25.1333 13C25.1257 19.6979 19.6979 25.1257 13 25.1333Z" fill="#620049"/>
<path d="M13 2.16699C7.0169 2.16699 2.16666 7.01724 2.16666 13.0003C2.16666 18.9834 7.0169 23.8337 13 23.8337C18.9831 23.8337 23.8333 18.9834 23.8333 13.0003C23.8267 7.02 18.9803 2.17365 13 2.16699ZM13 22.967C7.49557 22.967 3.03332 18.5047 3.03332 13.0003C3.03332 7.49591 7.49557 3.03366 13 3.03366C18.5044 3.03366 22.9667 7.49591 22.9667 13.0003C22.9604 18.5022 18.5019 22.9608 13 22.967Z" fill="#620049"/>
<path d="M13.4333 4.33301H12.5667V5.19967H13.4333V4.33301Z" fill="#620049"/>
<path d="M13.4333 20.7998H12.5667V21.6665H13.4333V20.7998Z" fill="#620049"/>
<path d="M9.04087 5.27822L8.2908 5.71143L8.724 6.4615L9.47408 6.02829L9.04087 5.27822Z" fill="#620049"/>
<path d="M17.2723 19.5355L16.5222 19.9688L16.9554 20.7188L17.7055 20.2856L17.2723 19.5355Z" fill="#620049"/>
<path d="M5.71074 8.29097L5.2774 9.0415L6.02794 9.47484L6.46127 8.7243L5.71074 8.29097Z" fill="#620049"/>
<path d="M19.9698 16.5258L19.5365 17.2764L20.287 17.7097L20.7203 16.9592L19.9698 16.5258Z" fill="#620049"/>
<path d="M5.20001 12.5664H4.33334V13.4331H5.20001V12.5664Z" fill="#620049"/>
<path d="M21.6667 12.5664H20.8V13.4331H21.6667V12.5664Z" fill="#620049"/>
<path d="M6.02827 16.5252L5.27765 16.9585L5.7109 17.7091L6.46152 17.2759L6.02827 16.5252Z" fill="#620049"/>
<path d="M20.2869 8.29128L19.5363 8.72461L19.9697 9.47514L20.7202 9.04181L20.2869 8.29128Z" fill="#620049"/>
<path d="M8.72181 19.5375L8.2886 20.2876L9.03868 20.7208L9.47188 19.9707L8.72181 19.5375Z" fill="#620049"/>
<path d="M16.9574 5.27922L16.5242 6.0293L17.2742 6.4625L17.7074 5.71243L16.9574 5.27922Z" fill="#620049"/>
<path d="M12.5667 6.06641V12.7545L8.44351 15.2284L8.88984 15.9711L13.2232 13.3711C13.3536 13.2928 13.4333 13.1518 13.4333 12.9997V6.06641H12.5667Z" fill="#620049"/>
</svg>
