<svg width="60" height="30" viewBox="0 0 60 30" fill="none" xmlns="http://www.w3.org/2000/svg">
<path d="M23.9975 22.146H7.61748L4.08948 30H0.855484L14.2955 0.599998H17.3615L30.8015 30H27.5255L23.9975 22.146ZM22.8635 19.626L15.8075 3.834L8.75148 19.626H22.8635ZM55.741 30L49.021 20.55C48.265 20.634 47.481 20.676 46.669 20.676H38.773V30H35.665V0.599998H46.669C50.421 0.599998 53.361 1.496 55.489 3.288C57.617 5.08 58.681 7.544 58.681 10.68C58.681 12.976 58.093 14.922 56.917 16.518C55.769 18.086 54.117 19.22 51.961 19.92L59.143 30H55.741ZM46.585 18.03C49.497 18.03 51.723 17.386 53.263 16.098C54.803 14.81 55.573 13.004 55.573 10.68C55.573 8.3 54.803 6.48 53.263 5.22C51.723 3.932 49.497 3.288 46.585 3.288H38.773V18.03H46.585Z" fill="#540B5F"/>
</svg>
